# This file uses centimeters as units for non-parametric coordinates.

mtllib muur.mtl
g default
v -11.108934 -0.266346 0.500000
v 11.108934 -0.266346 0.500000
v -11.108934 14.733078 0.500000
v 11.108934 14.733078 0.500000
v -11.108934 14.733078 -0.500000
v 11.108934 14.733078 -0.500000
v -11.108934 -0.266346 -0.500000
v 11.108934 -0.266346 -0.500000
v 6.665362 -0.266346 0.500000
v 6.665362 -0.266346 -0.500000
v 6.665362 14.733078 -0.500000
v 6.665362 14.733078 0.500000
v -2.221787 -0.266346 0.500000
v -2.221787 -0.266346 -0.500000
v -2.221787 14.733078 -0.500000
v -2.221787 14.733078 0.500000
v -11.108934 2.733538 0.500000
v 11.108934 2.733538 0.500000
v 11.108934 2.733538 -0.500000
v -11.108934 2.733538 -0.500000
v -11.108934 11.133217 -0.500000
v 11.108934 11.133217 -0.500000
v 11.108934 11.133217 0.500000
v -11.108934 11.133217 0.500000
v 6.715356 2.683543 -0.500000
v 6.665362 2.733538 -0.450005
v 6.715356 11.183212 -0.500000
v 6.665362 11.133217 -0.450005
v -2.271782 2.683543 -0.500000
v -2.221787 2.733538 -0.450005
v -2.271782 11.183212 -0.500000
v -2.221787 11.133217 -0.450005
v -2.271782 2.683543 0.500000
v -2.221787 2.733538 0.450005
v 6.715356 2.683543 0.500000
v 6.665362 2.733538 0.450005
v 6.715356 11.183212 0.500000
v 6.665362 11.133217 0.450005
v -2.271782 11.183212 0.500000
v -2.221787 11.133217 0.450005
vt 0.699833 0.313323
vt 0.699833 0.001885
vt 0.874238 0.001885
vt 0.874238 0.313323
vt 0.637545 0.313323
vt 0.637545 0.001885
vt 0.948982 0.001885
vt 0.948982 0.313323
vt 0.686570 0.379602
vt 0.998008 0.379602
vt 0.998008 0.554008
vt 0.686570 0.554008
vt 0.686570 0.317315
vt 0.998008 0.317315
vt 0.998008 0.628753
vt 0.686570 0.628753
vt 0.503954 0.628752
vt 0.504992 0.613182
vt 0.679397 0.613182
vt 0.680435 0.628752
vt 0.504994 0.332895
vt 0.679394 0.332895
vt 0.503956 0.317310
vt 0.680432 0.317310
vt 0.058150 0.332885
vt 0.057113 0.317314
vt 0.233594 0.317314
vt 0.232556 0.332885
vt 0.232553 0.613172
vt 0.058153 0.613172
vt 0.057115 0.628757
vt 0.233591 0.628757
vt 0.251142 0.313323
vt 0.251142 0.001885
vt 0.313430 0.001885
vt 0.313430 0.313323
vt 0.126567 0.313323
vt 0.126567 0.001885
vt 0.001992 0.001885
vt 0.001992 0.313323
vt 0.569017 0.313323
vt 0.569017 0.001885
vt 0.631304 0.001885
vt 0.631304 0.313323
vt 0.444441 0.313323
vt 0.444441 0.001885
vt 0.319866 0.001885
vt 0.319866 0.313323
vt 0.497117 0.613181
vt 0.497818 0.628752
vt 0.371841 0.628752
vt 0.372542 0.613181
vt 0.372547 0.332906
vt 0.497113 0.332906
vt 0.371846 0.317302
vt 0.497814 0.317302
vt 0.365706 0.317314
vt 0.365005 0.332884
vt 0.240430 0.332884
vt 0.239729 0.317314
vt 0.365001 0.613159
vt 0.240434 0.613159
vt 0.365701 0.628763
vt 0.239734 0.628763
vt 0.313430 0.869437
vt 0.251843 0.870475
vt 0.251843 0.693993
vt 0.313430 0.695031
vt 0.251142 0.944182
vt 0.313430 0.944182
vt 0.251142 0.632744
vt 0.313430 0.632744
vt 0.126567 0.944182
vt 0.125866 0.870475
vt 0.125866 0.693993
vt 0.126567 0.632744
vt 0.001992 0.869437
vt 0.001992 0.944182
vt 0.001992 0.632744
vt 0.001992 0.695031
vt 0.569016 0.632743
vt 0.570053 0.694330
vt 0.393573 0.694330
vt 0.394611 0.632743
vt 0.631303 0.695031
vt 0.631303 0.632743
vt 0.319866 0.695031
vt 0.319866 0.632743
vt 0.631303 0.819605
vt 0.570053 0.820307
vt 0.393573 0.820307
vt 0.319866 0.819605
vt 0.569016 0.944180
vt 0.631303 0.944180
vt 0.319866 0.944180
vt 0.394611 0.944180
vn 0.000000 1.000000 0.000000
vn 0.000000 1.000000 0.000000
vn 0.000000 1.000000 0.000000
vn 0.000000 1.000000 0.000000
vn 0.000000 -1.000000 0.000000
vn 0.000000 -1.000000 0.000000
vn 0.000000 -1.000000 0.000000
vn 0.000000 -1.000000 0.000000
vn 1.000000 0.000000 0.000000
vn 1.000000 0.000000 0.000000
vn 1.000000 0.000000 0.000000
vn 1.000000 0.000000 0.000000
vn -1.000000 0.000000 0.000000
vn -1.000000 0.000000 0.000000
vn -1.000000 0.000000 0.000000
vn -1.000000 0.000000 0.000000
vn 0.000000 -1.000000 0.000000
vn 0.000000 -1.000000 0.000000
vn 0.000000 1.000000 0.000000
vn 0.000000 1.000000 0.000000
vn 0.000000 -1.000000 0.000000
vn 0.000000 -1.000000 0.000000
vn 0.000000 1.000000 0.000000
vn 0.000000 1.000000 0.000000
vn 1.000000 0.000000 0.000000
vn 1.000000 0.000000 0.000000
vn -1.000000 0.000000 0.000000
vn -1.000000 0.000000 0.000000
vn 1.000000 0.000000 0.000000
vn 1.000000 0.000000 0.000000
vn -1.000000 0.000000 0.000000
vn -1.000000 0.000000 0.000000
vn -0.707115 0.000000 -0.707099
vn -0.707115 0.000000 -0.707099
vn -0.707115 0.000000 -0.707099
vn -0.707115 0.000000 -0.707099
vn 0.000000 0.707106 -0.707108
vn 0.000000 0.707106 -0.707108
vn 0.000000 0.707106 -0.707107
vn 0.000000 0.707106 -0.707108
vn 0.000000 -0.707104 -0.707109
vn 0.000000 -0.707104 -0.707109
vn 0.000000 -0.707104 -0.707110
vn 0.000000 -0.707104 -0.707109
vn 0.707109 0.000000 -0.707105
vn 0.707109 0.000000 -0.707105
vn 0.707109 0.000000 -0.707105
vn 0.707109 0.000000 -0.707105
vn 0.707109 0.000000 0.707105
vn 0.707109 0.000000 0.707105
vn 0.707109 0.000000 0.707105
vn 0.707109 0.000000 0.707105
vn 0.000000 0.707106 0.707108
vn 0.000000 0.707106 0.707107
vn 0.000000 0.707106 0.707108
vn 0.000000 0.707106 0.707108
vn -0.707115 0.000000 0.707099
vn -0.707115 0.000000 0.707099
vn -0.707115 0.000000 0.707099
vn -0.707115 0.000000 0.707099
vn 0.000000 -0.707104 0.707109
vn 0.000000 -0.707104 0.707109
vn 0.000000 -0.707104 0.707109
vn 0.000000 -0.707104 0.707110
vn 0.000000 0.000000 1.000000
vn 0.000000 0.000000 1.000000
vn 0.000000 0.000000 1.000000
vn 0.000000 0.000000 1.000000
vn 0.000000 0.000000 -1.000000
vn 0.000000 0.000000 -1.000000
vn 0.000000 0.000000 -1.000000
vn 0.000000 0.000000 -1.000000
vn 0.000000 0.000000 -1.000000
vn 0.000000 0.000000 -1.000000
vn 0.000000 0.000000 -1.000000
vn 0.000000 0.000000 -1.000000
vn -0.000000 0.000000 1.000000
vn -0.000000 0.000000 1.000000
vn -0.000000 0.000000 1.000000
vn -0.000000 0.000000 1.000000
vn 0.000000 0.000000 1.000000
vn 0.000000 0.000000 1.000000
vn 0.000000 0.000000 1.000000
vn 0.000000 0.000000 1.000000
vn 0.000000 0.000000 -1.000000
vn 0.000000 0.000000 -1.000000
vn 0.000000 0.000000 -1.000000
vn 0.000000 0.000000 -1.000000
vn 0.000000 0.000000 -1.000000
vn 0.000000 0.000000 -1.000000
vn 0.000000 0.000000 -1.000000
vn 0.000000 0.000000 -1.000000
vn 0.000000 0.000000 1.000000
vn 0.000000 0.000000 1.000000
vn 0.000000 0.000000 1.000000
vn 0.000000 0.000000 1.000000
vn 1.000000 0.000000 0.000000
vn 1.000000 0.000000 0.000000
vn 1.000000 0.000000 0.000000
vn 1.000000 0.000000 0.000000
vn 0.000000 -1.000000 0.000000
vn 0.000000 -1.000000 0.000000
vn 0.000000 -1.000000 0.000000
vn 0.000000 -1.000000 0.000000
vn -1.000000 0.000000 0.000000
vn -1.000000 0.000000 0.000000
vn -1.000000 0.000000 0.000000
vn -1.000000 0.000000 0.000000
vn 0.000000 1.000000 0.000000
vn 0.000000 1.000000 0.000000
vn 0.000000 1.000000 0.000000
vn 0.000000 1.000000 0.000000
s 1
g muur
usemtl initialShadingGroup
f 11/33/1 12/34/2 4/35/3 6/36/4
s 2
f 9/41/5 10/42/6 8/43/7 2/44/8
s 3
f 18/1/9 19/2/10 22/3/11 23/4/12
s 4
f 20/9/13 17/10/14 24/11/15 21/12/16
s 2
f 13/45/17 14/46/18 10/42/6 9/41/5
s 1
f 15/37/19 16/38/20 12/34/2 11/33/1
s 2
f 7/47/21 14/46/18 13/45/17 1/48/22
s 1
f 3/39/23 16/38/20 15/37/19 5/40/24
s 3
f 2/5/25 8/6/26 19/2/10 18/1/9
s 4
f 7/13/27 1/14/28 17/10/14 20/9/13
s 3
f 23/4/12 22/3/11 6/7/29 4/8/30
s 4
f 21/12/16 24/11/15 3/15/31 5/16/32
s off
f 25/17/33 26/18/34 28/19/35 27/20/36
f 26/49/37 25/50/38 29/51/39 30/52/40
f 27/57/41 28/58/42 32/59/43 31/60/44
f 30/25/45 29/26/46 31/27/47 32/28/48
f 33/31/49 34/30/50 40/29/51 39/32/52
f 34/53/53 33/55/54 35/56/55 36/54/56
f 36/21/57 35/23/58 37/24/59 38/22/60
f 38/61/61 37/63/62 39/64/63 40/62/64
s 5
f 23/65/65 37/66/66 35/67/67 18/68/68
s 6
f 19/81/69 25/82/70 27/83/71 22/84/72
f 21/96/73 31/91/74 29/90/75 20/93/76
s 5
f 17/80/77 33/75/78 39/74/79 24/77/80
f 1/79/81 13/76/82 33/75/78 17/80/77
f 35/67/67 33/75/78 13/76/82 9/71/83
f 18/68/68 35/67/67 9/71/83 2/72/84
s 6
f 10/85/85 25/82/70 19/81/69 8/86/86
f 14/89/87 29/90/75 25/82/70 10/85/85
f 20/93/76 29/90/75 14/89/87 7/94/88
f 5/95/89 15/92/90 31/91/74 21/96/73
f 27/83/71 31/91/74 15/92/90 11/87/91
f 22/84/72 27/83/71 11/87/91 6/88/92
s 5
f 12/69/93 37/66/66 23/65/65 4/70/94
f 16/73/95 39/74/79 37/66/66 12/69/93
f 24/77/80 39/74/79 16/73/95 3/78/96
s off
f 30/25/97 32/28/98 40/29/99 34/30/100
f 32/59/101 28/58/102 38/61/103 40/62/104
f 28/19/105 26/18/106 36/21/107 38/22/108
f 34/53/109 36/54/110 26/49/111 30/52/112
