# This file uses centimeters as units for non-parametric coordinates.

mtllib grondmetgat.mtl
g default
v -10.093845 -0.401247 3.934482
v 10.093845 -0.401247 3.934482
v -10.093845 0.401247 3.934482
v 10.093845 0.401247 3.934482
v -10.093845 0.401247 -3.934482
v 10.093845 0.401247 -3.934482
v -10.093845 -0.401247 -3.934482
v 10.093845 -0.401247 -3.934482
v -9.397703 -0.335458 3.377293
v 9.397703 -0.335458 3.377293
v 9.397703 -0.335458 -3.377293
v -9.397703 -0.335458 -3.377293
v -9.471365 0.401247 3.450956
v -9.397703 0.327584 3.377293
v 9.471365 0.401247 3.450956
v 9.397703 0.327584 3.377293
v 9.471365 0.401247 -3.450956
v 9.397703 0.327584 -3.377293
v -9.471365 0.401247 -3.450956
v -9.397703 0.327584 -3.377293
vt 0.696910 0.262470
vt 0.953574 0.262470
vt 0.953574 0.519135
vt 0.696910 0.519135
vt 0.434384 0.262472
vt 0.691048 0.262472
vt 0.691048 0.519136
vt 0.434384 0.519136
vt 0.713442 0.758571
vt 0.715845 0.735011
vt 0.936161 0.735011
vt 0.938563 0.758571
vt 0.715845 0.522949
vt 0.936161 0.522949
vt 0.951171 0.974448
vt 0.953574 0.998008
vt 0.728452 0.998008
vt 0.730855 0.974448
vt 0.730855 0.762385
vt 0.951171 0.762385
vt 0.486256 0.761912
vt 0.486256 0.522950
vt 0.706572 0.522950
vt 0.706572 0.761912
vt 0.527224 0.001992
vt 0.783889 0.001992
vt 0.783889 0.258656
vt 0.527224 0.258656
vt 0.171858 0.519137
vt 0.171858 0.262472
vt 0.187629 0.270387
vt 0.187629 0.511223
vt 0.428522 0.262472
vt 0.412751 0.270387
vt 0.428522 0.519137
vt 0.412751 0.511223
vt 0.001903 0.001992
vt 0.258568 0.001992
vt 0.258568 0.258657
vt 0.001903 0.258657
vt 0.264657 0.001993
vt 0.521321 0.001993
vt 0.521321 0.258658
vt 0.264657 0.258658
vt 0.025464 0.762850
vt 0.001903 0.763786
vt 0.001903 0.522951
vt 0.025464 0.523888
vt 0.237527 0.523888
vt 0.237527 0.762850
vt 0.456236 0.523887
vt 0.479796 0.522951
vt 0.479796 0.763787
vt 0.456236 0.762850
vt 0.244173 0.762850
vt 0.244173 0.523887
vn 0.000000 0.000000 1.000000
vn 0.000000 0.000000 1.000000
vn 0.000000 0.000000 1.000000
vn 0.000000 0.000000 1.000000
vn 0.000000 1.000000 0.000000
vn 0.000000 1.000000 0.000000
vn 0.000000 1.000000 0.000000
vn 0.000000 1.000000 0.000000
vn 0.000000 0.000000 -1.000000
vn 0.000000 0.000000 -1.000000
vn 0.000000 0.000000 -1.000000
vn 0.000000 0.000000 -1.000000
vn 0.000000 -1.000000 0.000000
vn 0.000000 -1.000000 0.000000
vn 0.000000 -1.000000 0.000000
vn 0.000000 -1.000000 0.000000
vn 1.000000 0.000000 0.000000
vn 1.000000 0.000000 0.000000
vn 1.000000 0.000000 0.000000
vn 1.000000 0.000000 0.000000
vn -1.000000 0.000000 0.000000
vn -1.000000 0.000000 0.000000
vn -1.000000 0.000000 0.000000
vn -1.000000 0.000000 0.000000
vn 0.707111 0.707103 0.000000
vn 0.707111 0.707103 0.000000
vn 0.707111 0.707103 0.000000
vn 0.707111 0.707103 0.000000
vn 0.000000 0.707108 -0.707106
vn 0.000000 0.707108 -0.707106
vn 0.000000 0.707108 -0.707106
vn 0.000000 0.707108 -0.707106
vn -0.707111 0.707103 0.000000
vn -0.707111 0.707103 0.000000
vn -0.707111 0.707103 0.000000
vn -0.707111 0.707103 0.000000
vn 0.000000 0.707108 0.707106
vn 0.000000 0.707108 0.707106
vn 0.000000 0.707108 0.707106
vn 0.000000 0.707108 0.707106
vn 0.000000 1.000000 0.000000
vn 0.000000 1.000000 0.000000
vn 0.000000 1.000000 0.000000
vn 0.000000 1.000000 0.000000
vn 0.000000 1.000000 -0.000000
vn 0.000000 1.000000 -0.000000
vn 0.000000 1.000000 -0.000000
vn 0.000000 1.000000 -0.000000
vn 0.000000 0.000000 -1.000000
vn 0.000000 0.000000 -1.000000
vn 0.000000 0.000000 -1.000000
vn 0.000000 0.000000 -1.000000
vn -1.000000 0.000000 0.000000
vn -1.000000 0.000000 0.000000
vn -1.000000 0.000000 0.000000
vn -1.000000 0.000000 0.000000
vn 0.000000 0.000000 1.000000
vn 0.000000 0.000000 1.000000
vn 0.000000 0.000000 1.000000
vn 0.000000 0.000000 1.000000
vn 1.000000 0.000000 0.000000
vn 1.000000 0.000000 0.000000
vn 1.000000 0.000000 0.000000
vn 1.000000 0.000000 0.000000
s off
g grondmetgat
usemtl initialShadingGroup
f 1/37/1 2/38/2 4/39/3 3/40/4
f 9/21/5 10/22/6 11/23/7 12/24/8
f 5/41/9 6/42/10 8/43/11 7/44/12
f 7/25/13 8/26/14 2/27/15 1/28/16
f 2/1/17 8/2/18 6/3/19 4/4/20
f 7/5/21 1/6/22 3/7/23 5/8/24
f 13/9/25 14/10/26 20/11/27 19/12/28
f 14/45/29 13/46/30 15/47/31 16/48/32
f 16/15/33 15/16/34 17/17/35 18/18/36
f 18/51/37 17/52/38 19/53/39 20/54/40
s 1
f 3/29/41 4/30/42 15/31/43 13/32/44
f 4/30/42 6/33/45 17/34/46 15/31/43
f 6/33/45 5/35/47 19/36/48 17/34/46
f 5/35/47 3/29/41 13/32/44 19/36/48
s off
f 14/45/49 16/48/50 10/49/51 9/50/52
f 16/15/53 18/18/54 11/19/55 10/20/56
f 18/51/57 20/54/58 12/55/59 11/56/60
f 20/11/61 14/10/62 9/13/63 12/14/64
