# This file uses centimeters as units for non-parametric coordinates.

mtllib rails.mtl
g default
v 1.509037 1.060479 -10.581285
v 1.509037 1.060479 7.282786
v 1.509037 1.142639 7.282786
v 1.509037 1.142639 -10.581285
v 1.838763 1.060479 -10.581285
v 1.838763 1.060479 7.282786
v 1.838763 1.142639 7.282786
v 1.838763 1.142639 -10.581285
v -3.726482 1.142639 7.612512
v -3.726482 1.142639 7.282786
v -3.726482 1.060479 7.282786
v -3.726482 1.060479 7.612512
v -1.673170 1.142639 7.282786
v -1.673170 1.060479 7.282786
v -1.673170 1.060479 7.612512
v -1.673170 1.142639 7.612512
v -1.343443 1.060479 7.282786
v -1.343443 1.060479 7.612512
v -1.343443 1.142639 7.612512
v -1.343443 1.142639 7.282786
v -1.673170 1.060479 8.077933
v -1.673170 1.142639 8.077933
v -1.343443 1.060479 8.077933
v -1.343443 1.142639 8.077933
v 1.509037 1.060479 7.612512
v 1.509037 1.142639 7.612512
v 1.838763 1.060479 7.612512
v 1.838763 1.142639 7.612512
v 1.509037 1.060479 8.077933
v 1.509037 1.142639 8.077933
v 1.838763 1.060479 8.077933
v 1.838763 1.142639 8.077933
v 4.061671 1.142639 7.282786
v 4.061671 1.060479 7.282786
v 4.061671 1.060479 7.612512
v 4.061671 1.142639 7.612512
v -1.343443 1.142639 -10.581285
v -1.343443 1.060479 -10.581285
v -1.673170 1.142639 -10.581285
v -1.673170 1.060479 -10.581285
v 4.061671 1.060479 -10.581285
v 4.061671 1.060479 -10.911012
v 4.061671 1.142639 -10.911012
v 4.061671 1.142639 -10.581285
v 1.838763 1.142639 -10.911012
v 1.838763 1.060479 -10.911012
v 1.509037 1.142639 -10.911012
v 1.509037 1.060479 -10.911012
v 1.838763 1.060479 -11.468148
v 1.838763 1.142639 -11.468148
v 1.509037 1.142639 -11.468148
v 1.509037 1.060479 -11.468148
v -1.343443 1.142639 -10.911012
v -1.343443 1.060479 -10.911012
v -1.673170 1.142639 -10.911012
v -1.673170 1.060479 -10.911012
v -1.343443 1.060479 -11.468148
v -1.343443 1.142639 -11.468148
v -1.673170 1.142639 -11.468148
v -1.673170 1.060479 -11.468148
v -3.726482 1.142639 -10.581285
v -3.726482 1.060479 -10.581285
v -3.726482 1.142639 -10.911012
v -3.726482 1.060479 -10.911012
vt 0.375000 0.011343
vt 0.375000 0.239830
vt 0.125000 0.239830
vt 0.125000 0.011343
vt 0.625000 0.011343
vt 0.625000 0.239830
vt 0.625000 0.510170
vt 0.625000 0.738657
vt 0.375000 0.738657
vt 0.375000 0.510170
vt 0.875000 0.011343
vt 0.875000 0.239830
vt 0.375000 0.750000
vt 0.625000 0.750000
vt 0.625000 1.000000
vt 0.375000 1.000000
vt 0.625000 0.000000
vt 0.875000 0.000000
vt 0.875000 0.065911
vt 0.625000 0.065911
vt 0.375000 0.000000
vt 0.375000 0.065911
vt 0.625000 0.684089
vt 0.375000 0.684089
vt 0.125000 0.000000
vt 0.125000 0.065911
vt 0.625000 0.239830
vt 0.625000 0.244047
vt 0.375000 0.244047
vt 0.375000 0.239830
vt 0.625000 0.505953
vt 0.625000 0.510170
vt 0.375000 0.510170
vt 0.375000 0.505953
vt 0.375000 0.250000
vt 0.125000 0.250000
vt 0.125000 0.244047
vt 0.625000 0.250000
vt 0.375000 0.500000
vt 0.625000 0.500000
vt 0.875000 0.244047
vt 0.875000 0.250000
vt 0.875000 0.076496
vt 0.875000 0.168060
vt 0.625000 0.168060
vt 0.625000 0.076496
vt 0.375000 0.168060
vt 0.375000 0.076496
vt 0.625000 0.581940
vt 0.625000 0.673504
vt 0.375000 0.673504
vt 0.375000 0.581940
vt 0.125000 0.168060
vt 0.125000 0.076496
vt 0.625000 0.244047
vt 0.375000 0.244047
vt 0.625000 0.505953
vt 0.375000 0.505953
vt 0.375000 0.250000
vt 0.125000 0.250000
vt 0.125000 0.244047
vt 0.625000 0.250000
vt 0.375000 0.500000
vt 0.625000 0.500000
vt 0.875000 0.244047
vt 0.875000 0.250000
vt 0.875000 0.178645
vt 0.875000 0.250000
vt 0.625000 0.250000
vt 0.625000 0.178645
vt 0.375000 0.250000
vt 0.375000 0.178645
vt 0.375000 0.500000
vt 0.625000 0.500000
vt 0.625000 0.571355
vt 0.375000 0.571355
vt 0.125000 0.250000
vt 0.125000 0.178645
vt 0.875000 0.011343
vt 0.875000 0.239830
vt 0.625000 0.011343
vt 0.625000 0.738657
vt 0.375000 0.738657
vt 0.375000 0.011343
vt 0.125000 0.239830
vt 0.125000 0.011343
vt 0.375000 0.250000
vt 0.625000 0.250000
vt 0.625000 0.500000
vt 0.375000 0.500000
vt 0.375000 0.178645
vt 0.125000 0.250000
vt 0.125000 0.178645
vt 0.625000 0.571355
vt 0.375000 0.571355
vt 0.625000 0.178645
vt 0.875000 0.178645
vt 0.875000 0.250000
vt 0.625000 0.742874
vt 0.375000 0.742874
vt 0.625000 0.007126
vt 0.375000 0.007126
vt 0.625000 0.000000
vt 0.875000 0.000000
vt 0.875000 0.007126
vt 0.625000 0.750000
vt 0.375000 0.750000
vt 0.375000 0.000000
vt 0.125000 0.000000
vt 0.125000 0.007126
vt 0.625000 1.000000
vt 0.375000 1.000000
vt 0.375000 0.076496
vt 0.375000 0.168060
vt 0.125000 0.168060
vt 0.125000 0.076496
vt 0.625000 0.581940
vt 0.625000 0.673504
vt 0.375000 0.673504
vt 0.375000 0.581940
vt 0.625000 0.076496
vt 0.625000 0.168060
vt 0.875000 0.076496
vt 0.875000 0.168060
vt 0.625000 0.742874
vt 0.375000 0.742874
vt 0.625000 0.007126
vt 0.375000 0.007126
vt 0.625000 0.000000
vt 0.875000 0.000000
vt 0.875000 0.007126
vt 0.625000 0.750000
vt 0.375000 0.750000
vt 0.375000 0.000000
vt 0.125000 0.000000
vt 0.125000 0.007126
vt 0.625000 1.000000
vt 0.375000 1.000000
vt 0.125000 0.000000
vt 0.375000 0.000000
vt 0.375000 0.065911
vt 0.125000 0.065911
vt 0.625000 0.684089
vt 0.625000 0.750000
vt 0.375000 0.750000
vt 0.375000 0.684089
vt 0.625000 0.000000
vt 0.625000 0.065911
vt 0.875000 0.000000
vt 0.875000 0.065911
vt 0.625000 1.000000
vt 0.375000 1.000000
vn -1.000000 0.000000 0.000000
vn -1.000000 0.000000 0.000000
vn -1.000000 0.000000 0.000000
vn -1.000000 0.000000 0.000000
vn 0.000000 -1.000000 0.000000
vn 0.000000 -1.000000 0.000000
vn 0.000000 -1.000000 0.000000
vn 0.000000 -1.000000 0.000000
vn 0.000000 1.000000 0.000000
vn 0.000000 1.000000 0.000000
vn 0.000000 1.000000 0.000000
vn 0.000000 1.000000 0.000000
vn 1.000000 0.000000 0.000000
vn 1.000000 0.000000 0.000000
vn 1.000000 0.000000 0.000000
vn 1.000000 0.000000 0.000000
vn -1.000000 0.000000 0.000000
vn -1.000000 0.000000 0.000000
vn -1.000000 0.000000 0.000000
vn -1.000000 0.000000 0.000000
vn 0.000000 0.000000 -1.000000
vn 0.000000 0.000000 -1.000000
vn 0.000000 0.000000 -1.000000
vn 0.000000 0.000000 -1.000000
vn 0.000000 -1.000000 0.000000
vn 0.000000 -1.000000 0.000000
vn 0.000000 -1.000000 0.000000
vn 0.000000 -1.000000 0.000000
vn 0.000000 1.000000 0.000000
vn 0.000000 1.000000 0.000000
vn 0.000000 1.000000 0.000000
vn 0.000000 1.000000 0.000000
vn 0.000000 0.000000 1.000000
vn 0.000000 0.000000 1.000000
vn 0.000000 0.000000 1.000000
vn 0.000000 0.000000 1.000000
vn 0.000000 -1.000000 0.000000
vn 0.000000 -1.000000 0.000000
vn 0.000000 1.000000 0.000000
vn 0.000000 1.000000 0.000000
vn -1.000000 0.000000 0.000000
vn -1.000000 0.000000 0.000000
vn -1.000000 0.000000 0.000000
vn -1.000000 0.000000 0.000000
vn 0.000000 -1.000000 0.000000
vn 0.000000 -1.000000 0.000000
vn 0.000000 1.000000 0.000000
vn 0.000000 1.000000 0.000000
vn 1.000000 0.000000 0.000000
vn 1.000000 0.000000 0.000000
vn 1.000000 0.000000 0.000000
vn 1.000000 0.000000 0.000000
vn 0.000000 0.000000 1.000000
vn 0.000000 0.000000 1.000000
vn 0.000000 0.000000 1.000000
vn 0.000000 0.000000 1.000000
vn 0.000000 0.000000 -1.000000
vn 0.000000 0.000000 -1.000000
vn 0.000000 0.000000 -1.000000
vn 0.000000 0.000000 -1.000000
vn 0.000000 -1.000000 0.000000
vn 0.000000 1.000000 0.000000
vn 0.000000 0.000000 1.000000
vn 0.000000 0.000000 1.000000
vn 0.000000 0.000000 1.000000
vn 0.000000 0.000000 1.000000
vn 0.000000 -1.000000 0.000000
vn 0.000000 1.000000 0.000000
vn -1.000000 0.000000 0.000000
vn -1.000000 0.000000 0.000000
vn -1.000000 0.000000 0.000000
vn -1.000000 0.000000 0.000000
vn 0.000000 -1.000000 0.000000
vn 0.000000 -1.000000 0.000000
vn 0.000000 1.000000 0.000000
vn 0.000000 1.000000 0.000000
vn 1.000000 0.000000 0.000000
vn 1.000000 0.000000 0.000000
vn 1.000000 0.000000 0.000000
vn 1.000000 0.000000 0.000000
vn 0.000000 0.000000 1.000000
vn 0.000000 0.000000 1.000000
vn 0.000000 0.000000 1.000000
vn 0.000000 0.000000 1.000000
vn 0.000000 0.000000 -1.000000
vn 0.000000 0.000000 -1.000000
vn 0.000000 0.000000 -1.000000
vn 0.000000 0.000000 -1.000000
vn 0.000000 -1.000000 0.000000
vn 0.000000 -1.000000 0.000000
vn 0.000000 1.000000 0.000000
vn 0.000000 1.000000 0.000000
vn 0.000000 0.000000 1.000000
vn 0.000000 0.000000 1.000000
vn 0.000000 0.000000 1.000000
vn 0.000000 0.000000 1.000000
vn 1.000000 0.000000 0.000000
vn 1.000000 0.000000 0.000000
vn 1.000000 0.000000 0.000000
vn 1.000000 0.000000 0.000000
vn 1.000000 0.000000 0.000000
vn 1.000000 0.000000 0.000000
vn 1.000000 0.000000 0.000000
vn 1.000000 0.000000 0.000000
vn 0.000000 1.000000 0.000000
vn 0.000000 1.000000 0.000000
vn 0.000000 -1.000000 0.000000
vn 0.000000 -1.000000 0.000000
vn -1.000000 0.000000 0.000000
vn -1.000000 0.000000 0.000000
vn -1.000000 0.000000 0.000000
vn -1.000000 0.000000 0.000000
vn 1.000000 0.000000 0.000000
vn 1.000000 0.000000 0.000000
vn 1.000000 0.000000 0.000000
vn 1.000000 0.000000 0.000000
vn 0.000000 0.000000 1.000000
vn 0.000000 0.000000 1.000000
vn 0.000000 0.000000 1.000000
vn 0.000000 0.000000 1.000000
vn 0.000000 1.000000 0.000000
vn 0.000000 1.000000 0.000000
vn 0.000000 1.000000 0.000000
vn 0.000000 -1.000000 0.000000
vn 0.000000 -1.000000 0.000000
vn 0.000000 -1.000000 0.000000
vn 0.000000 0.000000 -1.000000
vn 0.000000 0.000000 -1.000000
vn 0.000000 0.000000 -1.000000
vn 0.000000 0.000000 -1.000000
vn 0.000000 1.000000 0.000000
vn 0.000000 -1.000000 0.000000
vn 1.000000 0.000000 0.000000
vn 1.000000 0.000000 0.000000
vn 1.000000 0.000000 0.000000
vn 1.000000 0.000000 0.000000
vn 0.000000 1.000000 0.000000
vn 0.000000 1.000000 0.000000
vn 0.000000 -1.000000 0.000000
vn 0.000000 -1.000000 0.000000
vn -1.000000 0.000000 0.000000
vn -1.000000 0.000000 0.000000
vn -1.000000 0.000000 0.000000
vn -1.000000 0.000000 0.000000
vn 0.000000 0.000000 -1.000000
vn 0.000000 0.000000 -1.000000
vn 0.000000 0.000000 -1.000000
vn 0.000000 0.000000 -1.000000
vn 0.000000 0.000000 1.000000
vn 0.000000 0.000000 1.000000
vn 0.000000 0.000000 1.000000
vn 0.000000 0.000000 1.000000
vn 0.000000 1.000000 0.000000
vn 0.000000 -1.000000 0.000000
vn 0.000000 0.000000 -1.000000
vn 0.000000 0.000000 -1.000000
vn 0.000000 0.000000 -1.000000
vn 0.000000 0.000000 -1.000000
vn 0.000000 1.000000 0.000000
vn 0.000000 -1.000000 0.000000
vn 1.000000 0.000000 0.000000
vn 1.000000 0.000000 0.000000
vn 1.000000 0.000000 0.000000
vn 1.000000 0.000000 0.000000
vn 0.000000 1.000000 0.000000
vn 0.000000 1.000000 0.000000
vn 0.000000 -1.000000 0.000000
vn 0.000000 -1.000000 0.000000
vn -1.000000 0.000000 0.000000
vn -1.000000 0.000000 0.000000
vn -1.000000 0.000000 0.000000
vn -1.000000 0.000000 0.000000
vn 0.000000 0.000000 -1.000000
vn 0.000000 0.000000 -1.000000
vn 0.000000 0.000000 -1.000000
vn 0.000000 0.000000 -1.000000
vn 0.000000 0.000000 1.000000
vn 0.000000 0.000000 1.000000
vn 0.000000 0.000000 1.000000
vn 0.000000 0.000000 1.000000
vn 0.000000 1.000000 0.000000
vn 0.000000 1.000000 0.000000
vn 0.000000 -1.000000 0.000000
vn 0.000000 -1.000000 0.000000
vn 0.000000 0.000000 -1.000000
vn 0.000000 0.000000 -1.000000
vn 0.000000 0.000000 -1.000000
vn 0.000000 0.000000 -1.000000
vn -1.000000 0.000000 0.000000
vn -1.000000 0.000000 0.000000
vn -1.000000 0.000000 0.000000
vn -1.000000 0.000000 0.000000
s off
g rails
usemtl initialShadingGroup
f 1/1/1 2/2/2 3/3/3 4/4/4
s 1
f 5/5/5 6/6/6 2/2/7 1/1/8
s 2
f 7/7/9 8/8/10 4/9/11 3/10/12
s off
f 8/11/13 7/12/14 6/6/15 5/5/16
f 9/13/17 10/14/18 11/15/19 12/16/20
f 11/17/21 10/18/22 13/19/23 14/20/24
s 1
f 12/21/25 11/17/26 14/20/27 15/22/28
s 2
f 13/23/29 10/14/30 9/13/31 16/24/32
s off
f 9/25/33 12/21/34 15/22/35 16/26/36
s 1
f 17/27/37 18/28/38 15/29/28 14/30/27
s 2
f 19/31/39 20/32/40 13/33/29 16/34/32
s off
f 15/29/41 21/35/42 22/36/43 16/37/44
s 1
f 18/28/38 23/38/45 21/35/46 15/29/28
s 2
f 22/39/47 24/40/48 19/31/39 16/34/32
s off
f 19/41/49 24/42/50 23/38/51 18/28/52
f 21/35/53 23/38/54 24/40/55 22/39/56
f 20/43/57 3/44/58 2/45/59 17/46/60
s 1
f 17/46/37 2/45/7 25/47/61 18/48/38
s 2
f 3/49/12 20/50/40 19/51/39 26/52/62
s off
f 18/48/63 25/47/64 26/53/65 19/54/66
s 1
f 6/6/6 27/55/67 25/56/61 2/2/7
s 2
f 28/57/68 7/7/9 3/10/12 26/58/62
s off
f 25/56/69 29/59/70 30/60/71 26/61/72
s 1
f 27/55/67 31/62/73 29/59/74 25/56/61
s 2
f 30/63/75 32/64/76 28/57/68 26/58/62
s off
f 28/65/77 32/66/78 31/62/79 27/55/80
f 29/59/81 31/62/82 32/64/83 30/63/84
f 7/67/85 33/68/86 34/69/87 6/70/88
s 1
f 6/70/6 34/69/89 35/71/90 27/72/67
s 2
f 36/73/91 33/74/92 7/75/9 28/76/68
s off
f 27/72/93 35/71/94 36/77/95 28/78/96
f 35/71/97 34/69/98 33/74/99 36/73/100
f 37/79/101 20/80/102 17/27/103 38/81/104
s 2
f 20/32/40 37/82/105 39/83/106 13/33/29
s 1
f 38/81/107 17/27/37 14/30/27 40/84/108
s off
f 40/84/109 14/30/110 13/85/111 39/86/112
f 41/87/113 42/88/114 43/89/115 44/90/116
f 5/91/117 41/87/118 44/92/119 8/93/120
s 2
f 44/90/121 43/89/122 45/94/123 8/95/10
s 1
f 46/96/124 42/88/125 41/87/126 5/91/5
s off
f 45/97/127 43/98/128 42/88/129 46/96/130
s 2
f 8/8/10 45/99/123 47/100/131 4/9/11
s 1
f 46/101/124 5/5/5 1/1/8 48/102/132
s off
f 49/103/133 50/104/134 45/105/135 46/101/136
s 2
f 45/99/123 50/106/137 51/107/138 47/100/131
s 1
f 52/108/139 49/103/140 46/101/124 48/102/132
s off
f 51/109/141 52/108/142 48/102/143 47/110/144
f 51/107/145 50/106/146 49/111/147 52/112/148
f 38/113/149 1/114/150 4/115/151 37/116/152
s 2
f 47/117/131 53/118/153 37/119/105 4/120/11
s 1
f 54/121/154 48/122/132 1/114/8 38/113/107
s off
f 53/123/155 47/124/156 48/122/157 54/121/158
s 2
f 37/82/105 53/125/153 55/126/159 39/83/106
s 1
f 54/127/154 38/81/107 40/84/108 56/128/160
s off
f 57/129/161 58/130/162 53/131/163 54/127/164
s 2
f 53/125/153 58/132/165 59/133/166 55/126/159
s 1
f 60/134/167 57/129/168 54/127/154 56/128/160
s off
f 59/135/169 60/134/170 56/128/171 55/136/172
f 59/133/173 58/132/174 57/137/175 60/138/176
f 61/139/177 62/140/178 40/141/179 39/142/180
s 2
f 55/143/159 63/144/181 61/145/182 39/146/106
s 1
f 62/140/183 64/147/184 56/148/160 40/141/108
s off
f 64/147/185 63/149/186 55/150/187 56/148/188
f 61/145/189 63/144/190 64/151/191 62/152/192
